<svg width="71" height="64" viewBox="0 0 71 64" fill="none" xmlns="http://www.w3.org/2000/svg">
<path d="M23.25 58.5C22.6944 58.7222 22.1806 58.6597 21.7083 58.3125C21.2361 57.9653 21 57.5 21 56.9167V33.5833C21 33.2222 21.1042 32.9028 21.3125 32.625C21.5208 32.3472 21.8056 32.1389 22.1667 32L31 29L41 32.5L48.75 29.5C49.3056 29.2778 49.8194 29.3403 50.2917 29.6875C50.7639 30.0347 51 30.5 51 31.0833V45.125C50.5833 44.4861 50.0903 43.9028 49.5208 43.375C48.9514 42.8472 48.3333 42.3889 47.6667 42V33.5L42.6667 35.4167V40.6667C42.0833 40.6667 41.5139 40.7153 40.9583 40.8125C40.4028 40.9097 39.8611 41.0556 39.3333 41.25V35.4167L32.6667 33.0833V54.875L23.25 58.5ZM24.3333 54.5L29.3333 52.5833V33.0833L24.3333 34.75V54.5ZM45.0208 53.1667C45.6458 52.6111 45.9722 51.7778 46 50.6667C46.0278 49.7222 45.7153 48.9306 45.0625 48.2917C44.4097 47.6528 43.6111 47.3333 42.6667 47.3333C41.7222 47.3333 40.9306 47.6528 40.2917 48.2917C39.6528 48.9306 39.3333 49.7222 39.3333 50.6667C39.3333 51.6111 39.6528 52.4028 40.2917 53.0417C40.9306 53.6806 41.7222 54 42.6667 54C43.6111 54 44.3958 53.7222 45.0208 53.1667ZM42.6667 57.3333C40.8333 57.3333 39.2639 56.6806 37.9583 55.375C36.6528 54.0694 36 52.5 36 50.6667C36 48.8333 36.6528 47.2639 37.9583 45.9583C39.2639 44.6528 40.8333 44 42.6667 44C44.5 44 46.0694 44.6528 47.375 45.9583C48.6806 47.2639 49.3333 48.8333 49.3333 50.6667C49.3333 51.3056 49.2569 51.9097 49.1042 52.4792C48.9514 53.0486 48.7222 53.5833 48.4167 54.0833L52.6667 58.3333L50.3333 60.6667L46.0833 56.4167C45.5833 56.7222 45.0486 56.9514 44.4792 57.1042C43.9097 57.2569 43.3056 57.3333 42.6667 57.3333Z" fill="black"/>
</svg>
